<svg id="ebKfWXea8hw1" xmlns="http://www.w3.org/2000/svg" xmlns:xlink="http://www.w3.org/1999/xlink" viewBox="0 0 300 300" shape-rendering="geometricPrecision" text-rendering="geometricPrecision"><g transform="matrix(2.136315 0 0 2.154023-6.272307-7.1083)"><g transform="matrix(1.325263 0 0 1.476305-44.778811-150.991205)"><path d="M141.95311,148.05722c-4.29443-2.45396-10.06787-6.11375-13.79664-8.91033" transform="matrix(.938924 0.344127-.494191 1.348361 62.634478-64.055325)" fill="none" stroke="#25d6df" stroke-width="5" stroke-linecap="round"/><path d="M141.95311,148.05722c-4.29443-2.45396-10.06787-6.11375-13.79664-8.91033" transform="matrix(.938924 0.344127-.494191 1.348361 62.634478-64.055325)" fill="none" stroke="#fff" stroke-width="2" stroke-linecap="round"/><g transform="matrix(.760001 0 0 0.832194-2.509853 38.337999)"><ellipse rx="39.594844" ry="10.942296" transform="translate(96.593002 171.884592)" stroke="#7a7a7a" stroke-width="3"/><rect width="79.308751" height="10.942296" rx="0" ry="0" transform="translate(56.879096 160.942296)" stroke-width="0"/><ellipse rx="39.594844" ry="10.942296" transform="translate(96.593002 160.942296)" stroke="#7a7a7a" stroke-width="3"/><line x1="0" y1="-5.471148" x2="0" y2="5.471148" transform="translate(56.879095 166.413444)" fill="none" stroke="#7a7a7a" stroke-width="3"/><line x1="0" y1="-5.471148" x2="0" y2="5.471148" transform="translate(136.187846 166.413444)" fill="none" stroke="#7a7a7a" stroke-width="3"/></g><g transform="matrix(.760001 0 0 0.832194 33.749817 21.797069)"><ellipse rx="39.594844" ry="10.942296" transform="translate(96.593002 171.884592)" stroke="#7a7a7a" stroke-width="3"/><rect width="79.308751" height="10.942296" rx="0" ry="0" transform="translate(56.879096 160.942296)" stroke-width="0"/><ellipse rx="39.594844" ry="10.942296" transform="translate(96.593002 160.942296)" stroke="#7a7a7a" stroke-width="3"/><line x1="0" y1="-5.471148" x2="0" y2="5.471148" transform="translate(56.879095 166.413444)" fill="none" stroke="#7a7a7a" stroke-width="3"/><line x1="0" y1="-5.471148" x2="0" y2="5.471148" transform="translate(136.187846 166.413444)" fill="none" stroke="#7a7a7a" stroke-width="3"/></g><path d="M99.987711,161.987867q4.080818-34.753168,4.080818-34.753168" transform="translate(-29.132029 10.285345)" fill="#fff" stroke="#25d6df" stroke-width="5" stroke-linecap="round"/><path d="M99.987711,161.987867q4.080818-34.753168,4.080818-34.753168" transform="translate(-29.132029 10.285345)" fill="#fff" stroke="#fff" stroke-width="2" stroke-linecap="round"/><g transform="matrix(.760001 0 0 0.832194 10.301838 3.58483)"><ellipse rx="39.594844" ry="10.942296" transform="translate(96.593002 171.884592)" stroke="#7a7a7a" stroke-width="3"/><rect width="79.308751" height="10.942296" rx="0" ry="0" transform="translate(56.879096 160.942296)" stroke-width="0"/><ellipse rx="39.594844" ry="10.942296" transform="translate(96.593002 160.942296)" stroke="#7a7a7a" stroke-width="3"/><line x1="0" y1="-5.471148" x2="0" y2="5.471148" transform="translate(56.879095 166.413444)" fill="none" stroke="#7a7a7a" stroke-width="3"/><line x1="0" y1="-5.471148" x2="0" y2="5.471148" transform="translate(136.187846 166.413444)" fill="none" stroke="#7a7a7a" stroke-width="3"/></g><path d="M101.42549,123.9131c1.48426-7.42131,7.44208-12.20397,8.91033-19.54523" transform="matrix(.984937-.172912 0.172912 0.984937-46.387335 30.312679)" fill="none" stroke="#25d6df" stroke-width="5" stroke-linecap="round"/><path d="M101.42549,123.9131c1.48426-7.42131,7.44208-12.20397,8.91033-19.54523" transform="matrix(.984937-.172912 0.172912 0.984937-46.387335 30.312679)" fill="none" stroke="#fff" stroke-width="2" stroke-linecap="round"/><path d="M121.25816,125.06282c-2.83289-7.08222-6.34666-13.73176-10.92234-19.83267" transform="translate(-29.132029 10.285345)" fill="none" stroke="#25d6df" stroke-width="5" stroke-linecap="round"/><path d="M121.25816,125.06282c-2.83289-7.08222-6.34666-13.73176-10.92234-19.83267" transform="translate(-29.132029 10.285345)" fill="none" stroke="#fff" stroke-width="2" stroke-linecap="round"/><ellipse rx="6.637257" ry="6.056221" transform="translate(120.835821 182.104367)" fill="#25d6df" stroke-width="0"/><ellipse rx="6.637257" ry="6.056221" transform="matrix(.61999 0 0 0.608023 120.835821 182.104367)" fill="#fff" stroke-width="0"/><ellipse rx="6.637257" ry="6.056221" transform="translate(81.203791 115.57077)" fill="#25d6df" stroke-width="0"/><ellipse rx="6.637257" ry="6.056221" transform="matrix(.61999 0 0 0.608023 81.203791 115.57077)" fill="#fff" stroke-width="0"/></g></g></svg>
