<?xml version="1.0" encoding="UTF-8"?>
<svg xmlns="http://www.w3.org/2000/svg" xmlns:xlink="http://www.w3.org/1999/xlink" width="50px" height="50px" viewBox="0 0 50 50" version="1.1">
<g id="surface1">
<path style="fill:none;stroke-width:20;stroke-linecap:round;stroke-linejoin:round;stroke:rgb(0%,92.156863%,100%);stroke-opacity:1;stroke-miterlimit:4;" d="M 254.04167 218.839941 L 251.32292 199.527441 L 249.143232 192.754004 L 247.29167 187.246191 L 242.393232 177.355566 L 236.252607 169.339941 " transform="matrix(0.166667,0,0,0.166667,-1.125434,4.706364)"/>
<path style="fill:none;stroke-width:20;stroke-linecap:round;stroke-linejoin:round;stroke:rgb(0%,92.156863%,100%);stroke-opacity:1;stroke-miterlimit:4;" d="M 113.475772 199.516739 L 103.04528 187.232976 L 98.132456 177.407043 L 94.43861 169.346249 L 91.385605 158.370393 L 90.148724 149.99553 L 91.365005 137.509436 L 93.826491 125.241118 L 99.975782 113.556447 L 106.729125 104.981179 L 112.858495 98.828516 " transform="matrix(0.166652,0.00222433,-0.00222433,0.166652,-0.68981,4.482137)"/>
<path style="fill:none;stroke-width:10;stroke-linecap:round;stroke-linejoin:round;stroke:rgb(0%,0%,0%);stroke-opacity:1;stroke-miterlimit:4;" d="M 113.475772 199.516739 L 103.04528 187.232976 L 98.132456 177.407043 L 94.43861 169.346249 L 91.385605 158.370393 L 90.148724 149.99553 L 91.365005 137.509436 L 93.826491 125.241118 L 99.975782 113.556447 L 106.729125 104.981179 L 112.858495 98.828516 " transform="matrix(0.166652,0.00222433,-0.00222433,0.166652,-0.68981,4.482137)"/>
<path style=" stroke:none;fill-rule:nonzero;fill:rgb(0%,92.156863%,100%);fill-opacity:1;" d="M 44.59375 41.230469 C 44.59375 39.410156 43.082031 37.929688 41.214844 37.929688 C 39.351562 37.929688 37.839844 39.410156 37.839844 41.230469 C 37.839844 43.054688 39.351562 44.53125 41.214844 44.53125 C 43.082031 44.53125 44.59375 43.054688 44.59375 41.230469 Z M 44.59375 41.230469 "/>
<path style="fill:none;stroke-width:10;stroke-linecap:round;stroke-linejoin:round;stroke:rgb(0%,0%,0%);stroke-opacity:1;stroke-miterlimit:4;" d="M 254.04167 218.839941 L 251.32292 199.527441 C 251.32292 199.527441 249.799482 194.793066 249.143232 192.754004 C 248.60417 191.089941 247.29167 187.246191 247.29167 187.246191 L 242.393232 177.355566 L 236.252607 169.339941 " transform="matrix(0.166667,0,0,0.166667,-1.125434,4.706364)"/>
<path style="fill:none;stroke-width:20;stroke-linecap:round;stroke-linejoin:miter;stroke:rgb(0%,92.156863%,100%);stroke-opacity:1;stroke-miterlimit:4;" d="M 210.471359 130.664513 L 203.721359 122.156701 L 197.580734 115.406701 L 194.510422 109.266076 L 192.658859 103.734826 L 190.830734 98.836388 " transform="matrix(0.166667,0,0,0.166667,-1.125435,5.320237)"/>
<path style="fill:none;stroke-width:10;stroke-linecap:round;stroke-linejoin:miter;stroke:rgb(0%,0%,0%);stroke-opacity:1;stroke-miterlimit:4;" d="M 210.471359 130.664513 L 203.721359 122.156701 L 197.580734 115.406701 L 194.510422 109.266076 L 192.658859 103.734826 L 190.830734 98.836388 " transform="matrix(0.166667,0,0,0.166667,-1.125435,5.320237)"/>
<path style="fill:none;stroke-width:20;stroke-linecap:round;stroke-linejoin:round;stroke:rgb(0%,92.156863%,100%);stroke-opacity:1;stroke-miterlimit:4;" d="M 129.740057 89.013014 L 135.271307 79.192701 L 139.255682 71.200514 L 142.325994 60.770826 L 144.177557 51.559889 L 145.396307 42.348951 " transform="matrix(0.166667,0,0,0.166667,-0.306936,1.125435)"/>
<path style=" stroke:none;fill-rule:nonzero;fill:rgb(0%,92.156863%,100%);fill-opacity:1;" d="M 31.871094 6.542969 C 31.871094 3.351562 29.230469 0.765625 25.976562 0.765625 C 22.71875 0.765625 20.082031 3.351562 20.082031 6.542969 C 20.082031 9.734375 22.71875 12.320312 25.976562 12.320312 C 29.230469 12.320312 31.871094 9.734375 31.871094 6.542969 Z M 31.871094 6.542969 "/>
<path style="fill:none;stroke-width:10;stroke-linecap:round;stroke-linejoin:round;stroke:rgb(0%,0%,0%);stroke-opacity:1;stroke-miterlimit:4;" d="M 129.740057 89.013014 L 135.271307 79.192701 L 139.255682 71.200514 L 142.325994 60.770826 L 144.177557 51.559889 L 145.396307 42.348951 " transform="matrix(0.166667,0,0,0.166667,-0.306936,1.125435)"/>
<path style="fill:none;stroke-width:20;stroke-linecap:round;stroke-linejoin:round;stroke:rgb(0%,92.156863%,100%);stroke-opacity:1;stroke-miterlimit:4;" d="M 177.937499 95.765623 L 177.328124 83.484373 L 175.476562 70.593748 L 172.406249 61.992185 L 169.335937 55.85156 L 165.046874 50.343748 L 157.664062 44.203123 " transform="matrix(0.166667,0,0,0.166667,0.000000166667,0.000000333333)"/>
<path style="fill:none;stroke-width:10;stroke-linecap:round;stroke-linejoin:round;stroke:rgb(0%,0%,0%);stroke-opacity:1;stroke-miterlimit:4;" d="M 177.937499 95.765623 L 177.328124 83.484373 L 175.476562 70.593748 L 172.406249 61.992185 L 169.335937 55.85156 L 165.046874 50.343748 L 157.664062 44.203123 " transform="matrix(0.166667,0,0,0.166667,0.000000166667,0.000000333333)"/>
<path style="fill-rule:nonzero;fill:rgb(0%,0%,0%);fill-opacity:1;stroke-width:5;stroke-linecap:round;stroke-linejoin:round;stroke:rgb(0%,0%,0%);stroke-opacity:1;stroke-miterlimit:4;" d="M -0.000729605 0.00152594 L 193.991135 0.00152594 L 193.991135 43.584112 L -0.000729605 43.584112 Z M -0.000729605 0.00152594 " transform="matrix(0.136604,0,0,0.147887,10.6251,15.960712)"/>
<path style="fill-rule:nonzero;fill:rgb(0%,0%,0%);fill-opacity:1;stroke-width:5;stroke-linecap:round;stroke-linejoin:round;stroke:rgb(0%,0%,0%);stroke-opacity:1;stroke-miterlimit:4;" d="M -0.00857529 0.00172485 L 193.983289 0.00172485 L 193.983289 43.584311 L -0.00857529 43.584311 Z M -0.00857529 0.00172485 " transform="matrix(0.136604,0,0,0.147887,19.833203,27.097401)"/>
<path style="fill-rule:nonzero;fill:rgb(0%,0%,0%);fill-opacity:1;stroke-width:5;stroke-linecap:round;stroke-linejoin:round;stroke:rgb(0%,0%,0%);stroke-opacity:1;stroke-miterlimit:4;" d="M -0.0124881 -0.00551715 L 193.979376 -0.00551715 L 193.979376 43.577069 L -0.0124881 43.577069 Z M -0.0124881 -0.00551715 " transform="matrix(0.136604,0,0,0.147887,6.583737,37.957847)"/>
<path style=" stroke:none;fill-rule:nonzero;fill:rgb(0%,0%,0%);fill-opacity:1;" d="M 43.671875 41.230469 C 43.671875 39.933594 42.574219 38.878906 41.214844 38.878906 C 39.859375 38.878906 38.761719 39.933594 38.761719 41.230469 C 38.761719 42.53125 39.859375 43.585938 41.214844 43.585938 C 42.574219 43.585938 43.671875 42.53125 43.671875 41.230469 Z M 43.671875 41.230469 "/>
<path style=" stroke:none;fill-rule:nonzero;fill:rgb(0%,0%,0%);fill-opacity:1;" d="M 30.265625 6.542969 C 30.265625 4.269531 28.34375 2.421875 25.976562 2.421875 C 23.609375 2.421875 21.6875 4.269531 21.6875 6.542969 C 21.6875 8.820312 23.609375 10.664062 25.976562 10.664062 C 28.34375 10.664062 30.265625 8.820312 30.265625 6.542969 Z M 30.265625 6.542969 "/>
</g>
</svg>
