<?xml version="1.0" encoding="UTF-8"?>
<svg xmlns="http://www.w3.org/2000/svg" xmlns:xlink="http://www.w3.org/1999/xlink" width="50px" height="50px" viewBox="0 0 50 50" version="1.1">
<g id="surface1">
<path style="fill:none;stroke-width:5;stroke-linecap:round;stroke-linejoin:miter;stroke:rgb(14.509804%,83.921569%,87.45098%);stroke-opacity:1;stroke-miterlimit:4;" d="M 141.956235 148.055458 C 137.659666 145.604516 131.889156 141.944577 128.159425 139.14672 " transform="matrix(0.443044,0.182387,-0.233191,0.71463,12.565913,-89.340406)"/>
<path style="fill:none;stroke-width:2;stroke-linecap:round;stroke-linejoin:miter;stroke:rgb(100%,100%,100%);stroke-opacity:1;stroke-miterlimit:4;" d="M 141.956235 148.055458 C 137.659666 145.604516 131.889156 141.944577 128.159425 139.14672 " transform="matrix(0.443044,0.182387,-0.233191,0.71463,12.565913,-89.340406)"/>
<path style="fill-rule:nonzero;fill:rgb(0%,0%,0%);fill-opacity:1;stroke-width:3;stroke-linecap:butt;stroke-linejoin:miter;stroke:rgb(47.843137%,47.843137%,47.843137%);stroke-opacity:1;stroke-miterlimit:4;" d="M 39.589692 -0.00333197 C 39.589692 -6.043439 21.867505 -10.941063 -0.00474562 -10.941063 C -21.866103 -10.941063 -39.599183 -6.043439 -39.599183 -0.00333197 C -39.599183 6.045632 -21.866103 10.943255 -0.00474562 10.943255 C 21.867505 10.943255 39.589692 6.045632 39.589692 -0.00333197 Z M 39.589692 -0.00333197 " transform="matrix(0.358617,0,0,0.441062,16.466546,40.739751)"/>
<path style=" stroke:none;fill-rule:nonzero;fill:rgb(0%,0%,0%);fill-opacity:1;" d="M 2.222656 35.914062 L 30.664062 35.914062 L 30.664062 40.738281 L 2.222656 40.738281 Z M 2.222656 35.914062 "/>
<path style="fill-rule:nonzero;fill:rgb(0%,0%,0%);fill-opacity:1;stroke-width:3;stroke-linecap:butt;stroke-linejoin:miter;stroke:rgb(47.843137%,47.843137%,47.843137%);stroke-opacity:1;stroke-miterlimit:4;" d="M 39.589692 0.0012331 C 39.589692 -6.038874 21.867505 -10.945354 -0.00474562 -10.945354 C -21.866103 -10.945354 -39.599183 -6.038874 -39.599183 0.0012331 C -39.599183 6.04134 -21.866103 10.938964 -0.00474562 10.938964 C 21.867505 10.938964 39.589692 6.04134 39.589692 0.0012331 Z M 39.589692 0.0012331 " transform="matrix(0.358617,0,0,0.441062,16.466546,35.913519)"/>
<path style="fill:none;stroke-width:3;stroke-linecap:butt;stroke-linejoin:miter;stroke:rgb(47.843137%,47.843137%,47.843137%);stroke-opacity:1;stroke-miterlimit:4;" d="M -0.00509387 -5.469915 L -0.00509387 5.467816 " transform="matrix(0.358617,0,0,0.441062,2.224483,38.326635)"/>
<path style="fill:none;stroke-width:3;stroke-linecap:butt;stroke-linejoin:miter;stroke:rgb(47.843137%,47.843137%,47.843137%);stroke-opacity:1;stroke-miterlimit:4;" d="M -0.00515248 -5.469915 L -0.00515248 5.467816 " transform="matrix(0.358617,0,0,0.441062,30.66591,38.326635)"/>
<path style="fill-rule:nonzero;fill:rgb(0%,0%,0%);fill-opacity:1;stroke-width:3;stroke-linecap:butt;stroke-linejoin:miter;stroke:rgb(47.843137%,47.843137%,47.843137%);stroke-opacity:1;stroke-miterlimit:4;" d="M 39.599945 -0.000942487 C 39.599945 -6.04105 21.866866 -10.938673 -0.00538439 -10.938673 C -21.866742 -10.938673 -39.599822 -6.04105 -39.599822 -0.000942487 C -39.599822 6.039165 -21.866742 10.945645 -0.00538439 10.945645 C 21.866866 10.945645 39.599945 6.039165 39.599945 -0.000942487 Z M 39.599945 -0.000942487 " transform="matrix(0.358617,0,0,0.441062,33.57615,31.973072)"/>
<path style=" stroke:none;fill-rule:nonzero;fill:rgb(0%,0%,0%);fill-opacity:1;" d="M 19.335938 27.148438 L 47.777344 27.148438 L 47.777344 31.972656 L 19.335938 31.972656 Z M 19.335938 27.148438 "/>
<path style="fill-rule:nonzero;fill:rgb(0%,0%,0%);fill-opacity:1;stroke-width:3;stroke-linecap:butt;stroke-linejoin:miter;stroke:rgb(47.843137%,47.843137%,47.843137%);stroke-opacity:1;stroke-miterlimit:4;" d="M 39.599945 0.00362258 C 39.599945 -6.045341 21.866866 -10.942965 -0.00538439 -10.942965 C -21.866742 -10.942965 -39.599822 -6.045341 -39.599822 0.00362258 C -39.599822 6.04373 -21.866742 10.941354 -0.00538439 10.941354 C 21.866866 10.941354 39.599945 6.04373 39.599945 0.00362258 Z M 39.599945 0.00362258 " transform="matrix(0.358617,0,0,0.441062,33.57615,27.14684)"/>
<path style="fill:none;stroke-width:3;stroke-linecap:butt;stroke-linejoin:miter;stroke:rgb(47.843137%,47.843137%,47.843137%);stroke-opacity:1;stroke-miterlimit:4;" d="M 0.00515992 -5.467525 L 0.00515992 5.470206 " transform="matrix(0.358617,0,0,0.441062,19.334087,29.559956)"/>
<path style="fill:none;stroke-width:3;stroke-linecap:butt;stroke-linejoin:miter;stroke:rgb(47.843137%,47.843137%,47.843137%);stroke-opacity:1;stroke-miterlimit:4;" d="M 0.0051013 -5.467525 L 0.0051013 5.470206 " transform="matrix(0.358617,0,0,0.441062,47.775514,29.559956)"/>
<path style="fill-rule:nonzero;fill:rgb(100%,100%,100%);fill-opacity:1;stroke-width:5;stroke-linecap:round;stroke-linejoin:miter;stroke:rgb(14.509804%,83.921569%,87.45098%);stroke-opacity:1;stroke-miterlimit:4;" d="M 99.987956 161.988893 C 102.711534 138.816686 104.069184 127.237953 104.069184 127.237953 " transform="matrix(0.471863,0,0,0.529999,-30.735325,-49.939914)"/>
<path style="fill-rule:nonzero;fill:rgb(100%,100%,100%);fill-opacity:1;stroke-width:2;stroke-linecap:round;stroke-linejoin:miter;stroke:rgb(100%,100%,100%);stroke-opacity:1;stroke-miterlimit:4;" d="M 99.987956 161.988893 C 102.711534 138.816686 104.069184 127.237953 104.069184 127.237953 " transform="matrix(0.471863,0,0,0.529999,-30.735325,-49.939914)"/>
<path style="fill-rule:nonzero;fill:rgb(0%,0%,0%);fill-opacity:1;stroke-width:3;stroke-linecap:butt;stroke-linejoin:miter;stroke:rgb(47.843137%,47.843137%,47.843137%);stroke-opacity:1;stroke-miterlimit:4;" d="M 39.593901 -0.000653377 C 39.593901 -6.040761 21.871714 -10.938384 -0.00053658 -10.938384 C -21.872787 -10.938384 -39.594974 -6.040761 -39.594974 -0.000653377 C -39.594974 6.039454 -21.872787 10.945934 -0.00053658 10.945934 C 21.871714 10.945934 39.593901 6.039454 39.593901 -0.000653377 Z M 39.593901 -0.000653377 " transform="matrix(0.358617,0,0,0.441062,22.511911,22.320601)"/>
<path style=" stroke:none;fill-rule:nonzero;fill:rgb(0%,0%,0%);fill-opacity:1;" d="M 8.269531 17.496094 L 36.710938 17.496094 L 36.710938 22.320312 L 8.269531 22.320312 Z M 8.269531 17.496094 "/>
<path style="fill-rule:nonzero;fill:rgb(0%,0%,0%);fill-opacity:1;stroke-width:3;stroke-linecap:butt;stroke-linejoin:miter;stroke:rgb(47.843137%,47.843137%,47.843137%);stroke-opacity:1;stroke-miterlimit:4;" d="M 39.593901 0.00391169 C 39.593901 -6.045052 21.871714 -10.942676 -0.00053658 -10.942676 C -21.872787 -10.942676 -39.594974 -6.045052 -39.594974 0.00391169 C -39.594974 6.044019 -21.872787 10.941643 -0.00053658 10.941643 C 21.871714 10.941643 39.593901 6.044019 39.593901 0.00391169 Z M 39.593901 0.00391169 " transform="matrix(0.358617,0,0,0.441062,22.511911,17.494368)"/>
<path style="fill:none;stroke-width:3;stroke-linecap:butt;stroke-linejoin:miter;stroke:rgb(47.843137%,47.843137%,47.843137%);stroke-opacity:1;stroke-miterlimit:4;" d="M -0.000884826 -5.467236 L -0.000884826 5.470495 " transform="matrix(0.358617,0,0,0.441062,8.269849,19.907485)"/>
<path style="fill:none;stroke-width:3;stroke-linecap:butt;stroke-linejoin:miter;stroke:rgb(47.843137%,47.843137%,47.843137%);stroke-opacity:1;stroke-miterlimit:4;" d="M -0.000943438 -5.467236 L -0.000943438 5.470495 " transform="matrix(0.358617,0,0,0.441062,36.711276,19.907485)"/>
<path style="fill:none;stroke-width:5;stroke-linecap:round;stroke-linejoin:miter;stroke:rgb(14.509804%,83.921569%,87.45098%);stroke-opacity:1;stroke-miterlimit:4;" d="M 101.426741 123.910079 C 102.905516 116.492118 108.863863 111.708878 110.338047 104.364941 " transform="matrix(0.464756,-0.0916432,0.0815908,0.522016,-38.877469,-39.325444)"/>
<path style="fill:none;stroke-width:2;stroke-linecap:round;stroke-linejoin:miter;stroke:rgb(100%,100%,100%);stroke-opacity:1;stroke-miterlimit:4;" d="M 101.426741 123.910079 C 102.905516 116.492118 108.863863 111.708878 110.338047 104.364941 " transform="matrix(0.464756,-0.0916432,0.0815908,0.522016,-38.877469,-39.325444)"/>
<path style="fill:none;stroke-width:5;stroke-linecap:round;stroke-linejoin:miter;stroke:rgb(14.509804%,83.921569%,87.45098%);stroke-opacity:1;stroke-miterlimit:4;" d="M 121.255044 125.063716 C 118.423847 117.980863 114.913825 111.332857 110.335896 105.230253 " transform="matrix(0.471863,0,0,0.529999,-30.735325,-49.939914)"/>
<path style="fill:none;stroke-width:2;stroke-linecap:round;stroke-linejoin:miter;stroke:rgb(100%,100%,100%);stroke-opacity:1;stroke-miterlimit:4;" d="M 121.255044 125.063716 C 118.423847 117.980863 114.913825 111.332857 110.335896 105.230253 " transform="matrix(0.471863,0,0,0.529999,-30.735325,-49.939914)"/>
<path style=" stroke:none;fill-rule:nonzero;fill:rgb(14.509804%,83.921569%,87.45098%);fill-opacity:1;" d="M 43.160156 41.125 C 43.160156 39.351562 41.757812 37.914062 40.027344 37.914062 C 38.300781 37.914062 36.898438 39.351562 36.898438 41.125 C 36.898438 42.898438 38.300781 44.332031 40.027344 44.332031 C 41.757812 44.332031 43.160156 42.898438 43.160156 41.125 Z M 43.160156 41.125 "/>
<path style=" stroke:none;fill-rule:nonzero;fill:rgb(100%,100%,100%);fill-opacity:1;" d="M 41.972656 41.125 C 41.972656 40.046875 41.101562 39.171875 40.027344 39.171875 C 38.957031 39.171875 38.085938 40.046875 38.085938 41.125 C 38.085938 42.203125 38.957031 43.074219 40.027344 43.074219 C 41.101562 43.074219 41.972656 42.203125 41.972656 41.125 Z M 41.972656 41.125 "/>
<path style=" stroke:none;fill-rule:nonzero;fill:rgb(14.509804%,83.921569%,87.45098%);fill-opacity:1;" d="M 24.460938 5.859375 C 24.460938 4.089844 23.058594 2.652344 21.328125 2.652344 C 19.597656 2.652344 18.195312 4.089844 18.195312 5.859375 C 18.195312 7.632812 19.597656 9.070312 21.328125 9.070312 C 23.058594 9.070312 24.460938 7.632812 24.460938 5.859375 Z M 24.460938 5.859375 "/>
<path style=" stroke:none;fill-rule:nonzero;fill:rgb(100%,100%,100%);fill-opacity:1;" d="M 23.269531 5.859375 C 23.269531 4.785156 22.402344 3.910156 21.328125 3.910156 C 20.253906 3.910156 19.386719 4.785156 19.386719 5.859375 C 19.386719 6.9375 20.253906 7.8125 21.328125 7.8125 C 22.402344 7.8125 23.269531 6.9375 23.269531 5.859375 Z M 23.269531 5.859375 "/>
</g>
</svg>
