<?xml version="1.0" encoding="UTF-8"?>
<svg xmlns="http://www.w3.org/2000/svg" xmlns:xlink="http://www.w3.org/1999/xlink" width="24px" height="24px" viewBox="0 0 24 24" version="1.1">
<g id="surface1">
<path style="fill:none;stroke-width:5;stroke-linecap:round;stroke-linejoin:miter;stroke:rgb(14.509804%,83.921569%,87.45098%);stroke-opacity:1;stroke-miterlimit:4;" d="M 141.959433 148.058742 C 137.655146 145.604303 131.88769 141.940396 128.157495 139.145846 " transform="matrix(0.212661,0.0875458,-0.111931,0.343022,6.031638,-42.883395)"/>
<path style="fill:none;stroke-width:2;stroke-linecap:round;stroke-linejoin:miter;stroke:rgb(100%,100%,100%);stroke-opacity:1;stroke-miterlimit:4;" d="M 141.959433 148.058742 C 137.655146 145.604303 131.88769 141.940396 128.157495 139.145846 " transform="matrix(0.212661,0.0875458,-0.111931,0.343022,6.031638,-42.883395)"/>
<path style="fill-rule:nonzero;fill:rgb(0%,0%,0%);fill-opacity:1;stroke-width:3;stroke-linecap:butt;stroke-linejoin:miter;stroke:rgb(47.843137%,47.843137%,47.843137%);stroke-opacity:1;stroke-miterlimit:4;" d="M 39.589692 -0.00185589 C 39.589692 -6.035321 21.866597 -10.943277 -0.00928419 -10.943277 C -21.862472 -10.943277 -39.585567 -6.035321 -39.585567 -0.00185589 C -39.585567 6.05006 -21.862472 10.939565 -0.00928419 10.939565 C 21.866597 10.939565 39.589692 6.05006 39.589692 -0.00185589 Z M 39.589692 -0.00185589 " transform="matrix(0.172136,0,0,0.21171,7.903942,19.55508)"/>
<path style=" stroke:none;fill-rule:nonzero;fill:rgb(0%,0%,0%);fill-opacity:1;" d="M 1.066406 17.238281 L 14.71875 17.238281 L 14.71875 19.554688 L 1.066406 19.554688 Z M 1.066406 17.238281 "/>
<path style="fill-rule:nonzero;fill:rgb(0%,0%,0%);fill-opacity:1;stroke-width:3;stroke-linecap:butt;stroke-linejoin:miter;stroke:rgb(47.843137%,47.843137%,47.843137%);stroke-opacity:1;stroke-miterlimit:4;" d="M 39.589692 -0.000981014 C 39.589692 -6.034446 21.866597 -10.942402 -0.00928419 -10.942402 C -21.862472 -10.942402 -39.585567 -6.034446 -39.585567 -0.000981014 C -39.585567 6.050935 -21.862472 10.94044 -0.00928419 10.94044 C 21.866597 10.94044 39.589692 6.050935 39.589692 -0.000981014 Z M 39.589692 -0.000981014 " transform="matrix(0.172136,0,0,0.21171,7.903942,17.238489)"/>
<path style="fill:none;stroke-width:3;stroke-linecap:butt;stroke-linejoin:miter;stroke:rgb(47.843137%,47.843137%,47.843137%);stroke-opacity:1;stroke-miterlimit:4;" d="M -0.00781701 -5.472129 L -0.00781701 5.469292 " transform="matrix(0.172136,0,0,0.21171,1.067752,18.396785)"/>
<path style="fill:none;stroke-width:3;stroke-linecap:butt;stroke-linejoin:miter;stroke:rgb(47.843137%,47.843137%,47.843137%);stroke-opacity:1;stroke-miterlimit:4;" d="M -0.00515248 -5.472129 L -0.00515248 5.469292 " transform="matrix(0.172136,0,0,0.21171,14.719637,18.396785)"/>
<path style="fill-rule:nonzero;fill:rgb(0%,0%,0%);fill-opacity:1;stroke-width:3;stroke-linecap:butt;stroke-linejoin:miter;stroke:rgb(47.843137%,47.843137%,47.843137%);stroke-opacity:1;stroke-miterlimit:4;" d="M 39.602668 0.00274771 C 39.602668 -6.049168 21.856881 -10.938673 0.00369274 -10.938673 C -21.872188 -10.938673 -39.595283 -6.049168 -39.595283 0.00274771 C -39.595283 6.036213 -21.872188 10.944169 0.00369274 10.944169 C 21.856881 10.944169 39.602668 6.036213 39.602668 0.00274771 Z M 39.602668 0.00274771 " transform="matrix(0.172136,0,0,0.21171,16.116552,15.347075)"/>
<path style=" stroke:none;fill-rule:nonzero;fill:rgb(0%,0%,0%);fill-opacity:1;" d="M 9.28125 13.03125 L 22.933594 13.03125 L 22.933594 15.347656 L 9.28125 15.347656 Z M 9.28125 13.03125 "/>
<path style="fill-rule:nonzero;fill:rgb(0%,0%,0%);fill-opacity:1;stroke-width:3;stroke-linecap:butt;stroke-linejoin:miter;stroke:rgb(47.843137%,47.843137%,47.843137%);stroke-opacity:1;stroke-miterlimit:4;" d="M 39.602668 0.00362258 C 39.602668 -6.048293 21.856881 -10.937799 0.00369274 -10.937799 C -21.872188 -10.937799 -39.595283 -6.048293 -39.595283 0.00362258 C -39.595283 6.037088 -21.872188 10.945044 0.00369274 10.945044 C 21.856881 10.945044 39.602668 6.037088 39.602668 0.00362258 Z M 39.602668 0.00362258 " transform="matrix(0.172136,0,0,0.21171,16.116552,13.030483)"/>
<path style="fill:none;stroke-width:3;stroke-linecap:butt;stroke-linejoin:miter;stroke:rgb(47.843137%,47.843137%,47.843137%);stroke-opacity:1;stroke-miterlimit:4;" d="M 0.00515992 -5.467525 L 0.00515992 5.473896 " transform="matrix(0.172136,0,0,0.21171,9.280362,14.188779)"/>
<path style="fill:none;stroke-width:3;stroke-linecap:butt;stroke-linejoin:miter;stroke:rgb(47.843137%,47.843137%,47.843137%);stroke-opacity:1;stroke-miterlimit:4;" d="M 0.00782444 -5.467525 L 0.00782444 5.473896 " transform="matrix(0.172136,0,0,0.21171,22.932247,14.188779)"/>
<path style="fill-rule:nonzero;fill:rgb(100%,100%,100%);fill-opacity:1;stroke-width:5;stroke-linecap:round;stroke-linejoin:miter;stroke:rgb(14.509804%,83.921569%,87.45098%);stroke-opacity:1;stroke-miterlimit:4;" d="M 99.991405 161.987051 C 102.716363 138.816686 104.061595 127.239182 104.061595 127.239182 " transform="matrix(0.226494,0,0,0.2544,-14.752956,-23.971159)"/>
<path style="fill-rule:nonzero;fill:rgb(100%,100%,100%);fill-opacity:1;stroke-width:2;stroke-linecap:round;stroke-linejoin:miter;stroke:rgb(100%,100%,100%);stroke-opacity:1;stroke-miterlimit:4;" d="M 99.991405 161.987051 C 102.716363 138.816686 104.061595 127.239182 104.061595 127.239182 " transform="matrix(0.226494,0,0,0.2544,-14.752956,-23.971159)"/>
<path style="fill-rule:nonzero;fill:rgb(0%,0%,0%);fill-opacity:1;stroke-width:3;stroke-linecap:butt;stroke-linejoin:miter;stroke:rgb(47.843137%,47.843137%,47.843137%);stroke-opacity:1;stroke-miterlimit:4;" d="M 39.592993 0.00451289 C 39.592993 -6.047403 21.869898 -10.936908 -0.00598286 -10.936908 C -21.859171 -10.936908 -39.604959 -6.047403 -39.604959 0.00451289 C -39.604959 6.037978 -21.859171 10.945934 -0.00598286 10.945934 C 21.869898 10.945934 39.592993 6.037978 39.592993 0.00451289 Z M 39.592993 0.00451289 " transform="matrix(0.172136,0,0,0.21171,10.805717,10.713888)"/>
<path style=" stroke:none;fill-rule:nonzero;fill:rgb(0%,0%,0%);fill-opacity:1;" d="M 3.96875 8.398438 L 17.621094 8.398438 L 17.621094 10.714844 L 3.96875 10.714844 Z M 3.96875 8.398438 "/>
<path style="fill-rule:nonzero;fill:rgb(0%,0%,0%);fill-opacity:1;stroke-width:3;stroke-linecap:butt;stroke-linejoin:miter;stroke:rgb(47.843137%,47.843137%,47.843137%);stroke-opacity:1;stroke-miterlimit:4;" d="M 39.592993 0.00538777 C 39.592993 -6.046528 21.869898 -10.936033 -0.00598286 -10.936033 C -21.859171 -10.936033 -39.604959 -6.046528 -39.604959 0.00538777 C -39.604959 6.038853 -21.859171 10.946809 -0.00598286 10.946809 C 21.869898 10.946809 39.592993 6.038853 39.592993 0.00538777 Z M 39.592993 0.00538777 " transform="matrix(0.172136,0,0,0.21171,10.805717,8.397297)"/>
<path style="fill:none;stroke-width:3;stroke-linecap:butt;stroke-linejoin:miter;stroke:rgb(47.843137%,47.843137%,47.843137%);stroke-opacity:1;stroke-miterlimit:4;" d="M -0.00451568 -5.46576 L -0.00451568 5.475661 " transform="matrix(0.172136,0,0,0.21171,3.969527,9.555593)"/>
<path style="fill:none;stroke-width:3;stroke-linecap:butt;stroke-linejoin:miter;stroke:rgb(47.843137%,47.843137%,47.843137%);stroke-opacity:1;stroke-miterlimit:4;" d="M -0.00185115 -5.46576 L -0.00185115 5.475661 " transform="matrix(0.172136,0,0,0.21171,17.621412,9.555593)"/>
<path style="fill:none;stroke-width:5;stroke-linecap:round;stroke-linejoin:miter;stroke:rgb(14.509804%,83.921569%,87.45098%);stroke-opacity:1;stroke-miterlimit:4;" d="M 101.418629 123.912397 C 102.914413 116.489315 108.867536 111.703911 110.330402 104.368588 " transform="matrix(0.223083,-0.0439887,0.0391636,0.250568,-18.661185,-18.876213)"/>
<path style="fill:none;stroke-width:2;stroke-linecap:round;stroke-linejoin:miter;stroke:rgb(100%,100%,100%);stroke-opacity:1;stroke-miterlimit:4;" d="M 101.418629 123.912397 C 102.914413 116.489315 108.867536 111.703911 110.330402 104.368588 " transform="matrix(0.223083,-0.0439887,0.0391636,0.250568,-18.661185,-18.876213)"/>
<path style="fill:none;stroke-width:5;stroke-linecap:round;stroke-linejoin:miter;stroke:rgb(14.509804%,83.921569%,87.45098%);stroke-opacity:1;stroke-miterlimit:4;" d="M 121.256423 125.058803 C 118.427986 117.980249 114.909686 111.331629 110.339346 105.235781 " transform="matrix(0.226494,0,0,0.2544,-14.752956,-23.971159)"/>
<path style="fill:none;stroke-width:2;stroke-linecap:round;stroke-linejoin:miter;stroke:rgb(100%,100%,100%);stroke-opacity:1;stroke-miterlimit:4;" d="M 121.256423 125.058803 C 118.427986 117.980249 114.909686 111.331629 110.339346 105.235781 " transform="matrix(0.226494,0,0,0.2544,-14.752956,-23.971159)"/>
<path style=" stroke:none;fill-rule:nonzero;fill:rgb(14.509804%,83.921569%,87.45098%);fill-opacity:1;" d="M 20.71875 19.738281 C 20.71875 18.886719 20.042969 18.199219 19.214844 18.199219 C 18.382812 18.199219 17.710938 18.886719 17.710938 19.738281 C 17.710938 20.589844 18.382812 21.28125 19.214844 21.28125 C 20.042969 21.28125 20.71875 20.589844 20.71875 19.738281 Z M 20.71875 19.738281 "/>
<path style=" stroke:none;fill-rule:nonzero;fill:rgb(100%,100%,100%);fill-opacity:1;" d="M 20.144531 19.738281 C 20.144531 19.222656 19.730469 18.804688 19.214844 18.804688 C 18.699219 18.804688 18.28125 19.222656 18.28125 19.738281 C 18.28125 20.257812 18.699219 20.675781 19.214844 20.675781 C 19.730469 20.675781 20.144531 20.257812 20.144531 19.738281 Z M 20.144531 19.738281 "/>
<path style=" stroke:none;fill-rule:nonzero;fill:rgb(14.509804%,83.921569%,87.45098%);fill-opacity:1;" d="M 11.742188 2.8125 C 11.742188 1.960938 11.066406 1.273438 10.238281 1.273438 C 9.40625 1.273438 8.734375 1.960938 8.734375 2.8125 C 8.734375 3.664062 9.40625 4.355469 10.238281 4.355469 C 11.066406 4.355469 11.742188 3.664062 11.742188 2.8125 Z M 11.742188 2.8125 "/>
<path style=" stroke:none;fill-rule:nonzero;fill:rgb(100%,100%,100%);fill-opacity:1;" d="M 11.167969 2.8125 C 11.167969 2.296875 10.753906 1.875 10.238281 1.875 C 9.722656 1.875 9.304688 2.296875 9.304688 2.8125 C 9.304688 3.332031 9.722656 3.75 10.238281 3.75 C 10.753906 3.75 11.167969 3.332031 11.167969 2.8125 Z M 11.167969 2.8125 "/>
</g>
</svg>
