<?xml version="1.0" encoding="UTF-8"?>
<svg xmlns="http://www.w3.org/2000/svg" xmlns:xlink="http://www.w3.org/1999/xlink" width="24px" height="24px" viewBox="0 0 24 24" version="1.1">
<g id="surface1">
<path style="fill:none;stroke-width:20;stroke-linecap:round;stroke-linejoin:round;stroke:rgb(0%,92.156863%,100%);stroke-opacity:1;stroke-miterlimit:4;" d="M 254.06706 218.832129 L 251.332685 199.545019 L 249.13542 192.75791 L 247.279951 187.240332 L 242.397138 177.37705 L 236.244795 169.32041 " transform="matrix(0.08,0,0,0.08,-0.540209,2.259055)"/>
<path style="fill:none;stroke-width:20;stroke-linecap:round;stroke-linejoin:round;stroke:rgb(0%,92.156863%,100%);stroke-opacity:1;stroke-miterlimit:4;" d="M 113.451998 199.491664 L 103.033484 187.227274 L 98.117119 177.428734 L 94.444156 169.322736 L 91.368106 158.376486 L 90.133074 149.993785 L 91.38279 137.524825 L 93.806883 125.23552 L 99.950707 113.580222 L 106.72147 104.993001 L 112.841283 98.856092 " transform="matrix(0.0799929,0.00106768,-0.00106768,0.0799929,-0.331109,2.151426)"/>
<path style="fill:none;stroke-width:10;stroke-linecap:round;stroke-linejoin:round;stroke:rgb(0%,0%,0%);stroke-opacity:1;stroke-miterlimit:4;" d="M 113.451998 199.491664 L 103.033484 187.227274 L 98.117119 177.428734 L 94.444156 169.322736 L 91.368106 158.376486 L 90.133074 149.993785 L 91.38279 137.524825 L 93.806883 125.23552 L 99.950707 113.580222 L 106.72147 104.993001 L 112.841283 98.856092 " transform="matrix(0.0799929,0.00106768,-0.00106768,0.0799929,-0.331109,2.151426)"/>
<path style=" stroke:none;fill-rule:nonzero;fill:rgb(0%,92.156863%,100%);fill-opacity:1;" d="M 21.40625 19.792969 C 21.40625 18.917969 20.679688 18.207031 19.785156 18.207031 C 18.890625 18.207031 18.164062 18.917969 18.164062 19.792969 C 18.164062 20.667969 18.890625 21.375 19.785156 21.375 C 20.679688 21.375 21.40625 20.667969 21.40625 19.792969 Z M 21.40625 19.792969 "/>
<path style="fill:none;stroke-width:10;stroke-linecap:round;stroke-linejoin:round;stroke:rgb(0%,0%,0%);stroke-opacity:1;stroke-miterlimit:4;" d="M 254.06706 218.832129 L 251.332685 199.545019 C 251.332685 199.545019 249.819013 194.808691 249.13542 192.75791 C 248.59831 191.097754 247.279951 187.240332 247.279951 187.240332 L 242.397138 177.37705 L 236.244795 169.32041 " transform="matrix(0.08,0,0,0.08,-0.540209,2.259055)"/>
<path style="fill:none;stroke-width:20;stroke-linecap:round;stroke-linejoin:miter;stroke:rgb(0%,92.156863%,100%);stroke-opacity:1;stroke-miterlimit:4;" d="M 210.463547 130.676232 L 203.725265 122.180138 L 197.572922 115.393029 L 194.49675 109.289513 L 192.641281 103.723107 L 190.83464 98.840295 " transform="matrix(0.08,0,0,0.08,-0.540209,2.553714)"/>
<path style="fill:none;stroke-width:10;stroke-linecap:round;stroke-linejoin:miter;stroke:rgb(0%,0%,0%);stroke-opacity:1;stroke-miterlimit:4;" d="M 210.463547 130.676232 L 203.725265 122.180138 L 197.572922 115.393029 L 194.49675 109.289513 L 192.641281 103.723107 L 190.83464 98.840295 " transform="matrix(0.08,0,0,0.08,-0.540209,2.553714)"/>
<path style="fill:none;stroke-width:20;stroke-linecap:round;stroke-linejoin:round;stroke:rgb(0%,92.156863%,100%);stroke-opacity:1;stroke-miterlimit:4;" d="M 129.722478 88.999342 L 135.288885 79.184889 L 139.243963 71.225905 L 142.320135 60.776686 L 144.175603 51.54817 L 145.396307 42.368483 " transform="matrix(0.08,0,0,0.08,-0.14733,0.540209)"/>
<path style=" stroke:none;fill-rule:nonzero;fill:rgb(0%,92.156863%,100%);fill-opacity:1;" d="M 15.296875 3.140625 C 15.296875 1.609375 14.03125 0.367188 12.46875 0.367188 C 10.90625 0.367188 9.640625 1.609375 9.640625 3.140625 C 9.640625 4.671875 10.90625 5.914062 12.46875 5.914062 C 14.03125 5.914062 15.296875 4.671875 15.296875 3.140625 Z M 15.296875 3.140625 "/>
<path style="fill:none;stroke-width:10;stroke-linecap:round;stroke-linejoin:round;stroke:rgb(0%,0%,0%);stroke-opacity:1;stroke-miterlimit:4;" d="M 129.722478 88.999342 L 135.288885 79.184889 L 139.243963 71.225905 L 142.320135 60.776686 L 144.175603 51.54817 L 145.396307 42.368483 " transform="matrix(0.08,0,0,0.08,-0.14733,0.540209)"/>
<path style="fill:none;stroke-width:20;stroke-linecap:round;stroke-linejoin:round;stroke:rgb(0%,92.156863%,100%);stroke-opacity:1;stroke-miterlimit:4;" d="M 177.929687 95.751951 L 177.294921 83.496092 L 175.48828 70.605467 L 172.412108 62.011717 L 169.335937 55.859373 L 165.039062 50.341795 L 157.666015 44.189451 " transform="matrix(0.08,0,0,0.08,0.00000008,0.00000016)"/>
<path style="fill:none;stroke-width:10;stroke-linecap:round;stroke-linejoin:round;stroke:rgb(0%,0%,0%);stroke-opacity:1;stroke-miterlimit:4;" d="M 177.929687 95.751951 L 177.294921 83.496092 L 175.48828 70.605467 L 172.412108 62.011717 L 169.335937 55.859373 L 165.039062 50.341795 L 157.666015 44.189451 " transform="matrix(0.08,0,0,0.08,0.00000008,0.00000016)"/>
<path style="fill-rule:nonzero;fill:rgb(0%,0%,0%);fill-opacity:1;stroke-width:5;stroke-linecap:round;stroke-linejoin:round;stroke:rgb(0%,0%,0%);stroke-opacity:1;stroke-miterlimit:4;" d="M 0.0231 -0.013882 L 193.995901 -0.013882 L 193.995901 43.568704 L 0.0231 43.568704 Z M 0.0231 -0.013882 " transform="matrix(0.0655698,0,0,0.0709859,5.100048,7.661142)"/>
<path style="fill-rule:nonzero;fill:rgb(0%,0%,0%);fill-opacity:1;stroke-width:5;stroke-linecap:round;stroke-linejoin:round;stroke:rgb(0%,0%,0%);stroke-opacity:1;stroke-miterlimit:4;" d="M -0.00619234 0.0149317 L 193.966609 0.0149317 L 193.966609 43.597518 L -0.00619234 43.597518 Z M -0.00619234 0.0149317 " transform="matrix(0.0655698,0,0,0.0709859,9.519937,13.006753)"/>
<path style="fill-rule:nonzero;fill:rgb(0%,0%,0%);fill-opacity:1;stroke-width:5;stroke-linecap:round;stroke-linejoin:round;stroke:rgb(0%,0%,0%);stroke-opacity:1;stroke-miterlimit:4;" d="M -0.000573283 -0.0143217 L 193.972228 -0.0143217 L 193.972228 43.568265 L -0.000573283 43.568265 Z M -0.000573283 -0.0143217 " transform="matrix(0.0655698,0,0,0.0709859,3.160194,18.219767)"/>
<path style=" stroke:none;fill-rule:nonzero;fill:rgb(0%,0%,0%);fill-opacity:1;" d="M 20.960938 19.792969 C 20.960938 19.167969 20.433594 18.660156 19.785156 18.660156 C 19.132812 18.660156 18.605469 19.167969 18.605469 19.792969 C 18.605469 20.414062 19.132812 20.921875 19.785156 20.921875 C 20.433594 20.921875 20.960938 20.414062 20.960938 19.792969 Z M 20.960938 19.792969 "/>
<path style=" stroke:none;fill-rule:nonzero;fill:rgb(0%,0%,0%);fill-opacity:1;" d="M 14.527344 3.140625 C 14.527344 2.046875 13.605469 1.164062 12.46875 1.164062 C 11.332031 1.164062 10.410156 2.046875 10.410156 3.140625 C 10.410156 4.234375 11.332031 5.117188 12.46875 5.117188 C 13.605469 5.117188 14.527344 4.234375 14.527344 3.140625 Z M 14.527344 3.140625 "/>
</g>
</svg>
