<?xml version="1.0" encoding="UTF-8"?>
<svg xmlns="http://www.w3.org/2000/svg" xmlns:xlink="http://www.w3.org/1999/xlink" width="24px" height="24px" viewBox="0 0 24 24" version="1.1">
<g id="surface1">
<path style=" stroke:none;fill-rule:nonzero;fill:rgb(0%,0%,0%);fill-opacity:1;" d="M 9.1875 0.335938 C 5.851562 1.199219 2.925781 3.636719 1.238281 6.863281 C 0.375 8.550781 0.226562 9.261719 0.226562 12 C 0.226562 14.738281 0.375 15.449219 1.238281 17.136719 C 2.511719 19.613281 4.386719 21.488281 6.863281 22.761719 C 8.550781 23.625 9.261719 23.773438 12 23.773438 C 14.738281 23.773438 15.449219 23.625 17.136719 22.761719 C 19.613281 21.488281 21.488281 19.613281 22.761719 17.136719 C 23.625 15.449219 23.773438 14.738281 23.773438 12 C 23.773438 9.261719 23.625 8.550781 22.761719 6.863281 C 20.664062 2.8125 17.101562 0.449219 12.824219 0.1875 C 11.4375 0.113281 9.824219 0.148438 9.1875 0.335938 Z M 13.761719 6.148438 C 15.300781 8.398438 15.898438 10.574219 15.601562 12.710938 C 15.335938 14.511719 13.761719 17.550781 12.898438 17.886719 C 12.601562 18 12.375 18.5625 12.375 19.164062 C 12.375 19.761719 12.226562 20.25 12 20.25 C 11.8125 20.25 11.625 19.800781 11.625 19.199219 C 11.625 18.601562 11.324219 18 10.914062 17.738281 C 10.539062 17.476562 9.75 16.351562 9.1875 15.1875 C 7.613281 12 8.136719 8.851562 10.761719 5.324219 C 11.289062 4.648438 11.886719 4.164062 12.113281 4.238281 C 12.375 4.3125 13.125 5.175781 13.761719 6.148438 Z M 13.761719 6.148438 "/>
<path style=" stroke:none;fill-rule:nonzero;fill:rgb(0%,0%,0%);fill-opacity:1;" d="M 11.851562 12.074219 C 11.476562 13.5 11.585938 18 12 18 C 12.226562 18 12.375 16.613281 12.375 14.625 C 12.375 11.175781 12.261719 10.613281 11.851562 12.074219 Z M 11.851562 12.074219 "/>
</g>
</svg>
